<mxfile host="app.diagrams.net" modified="2023-09-01T08:12:43.263Z" agent="Mozilla/5.0 (Windows NT 10.0; Win64; x64) AppleWebKit/537.36 (KHTML, like Gecko) Chrome/116.0.0.0 Safari/537.36" version="21.7.1" etag="9Ksn__6hOlP9gXtH_68J" type="github">
  <diagram name="第 1 页" id="w1FX4nfx0FMLZE99oNJt">
    <mxGraphModel>
      <root>
        <mxCell id="0" />
        <mxCell id="1" parent="0" />
      </root>
    </mxGraphModel>
  </diagram>
</mxfile>
